<svg width="16" height="16" viewBox="0 0 16 16" fill="none" xmlns="http://www.w3.org/2000/svg">
<mask id="mask0_25_7492" style="mask-type:alpha" maskUnits="userSpaceOnUse" x="0" y="0" width="16" height="16">
<rect width="16" height="16" fill="#D9D9D9"/>
</mask>
<g mask="url(#mask0_25_7492)">
<path d="M8.00002 14.6666C7.16669 14.6666 6.38614 14.5083 5.65836 14.1916C4.93058 13.875 4.29725 13.4472 3.75836 12.9083C3.21947 12.3694 2.79169 11.7361 2.47502 11.0083C2.15836 10.2805 2.00002 9.49998 2.00002 8.66665C2.00002 7.83332 2.15836 7.05276 2.47502 6.32498C2.79169 5.59721 3.21947 4.96387 3.75836 4.42498C4.29725 3.88609 4.93058 3.45832 5.65836 3.14165C6.38614 2.82498 7.16669 2.66665 8.00002 2.66665C8.83336 2.66665 9.61391 2.82498 10.3417 3.14165C11.0695 3.45832 11.7028 3.88609 12.2417 4.42498C12.7806 4.96387 13.2084 5.59721 13.525 6.32498C13.8417 7.05276 14 7.83332 14 8.66665C14 9.49998 13.8417 10.2805 13.525 11.0083C13.2084 11.7361 12.7806 12.3694 12.2417 12.9083C11.7028 13.4472 11.0695 13.875 10.3417 14.1916C9.61391 14.5083 8.83336 14.6666 8.00002 14.6666ZM9.86669 11.4667L10.8 10.5333L8.66669 8.39998V5.33332H7.33336V8.93332L9.86669 11.4667ZM3.73336 1.56665L4.66669 2.49998L1.83336 5.33332L0.900024 4.39998L3.73336 1.56665ZM12.2667 1.56665L15.1 4.39998L14.1667 5.33332L11.3334 2.49998L12.2667 1.56665ZM8.00002 13.3333C9.30002 13.3333 10.4028 12.8805 11.3084 11.975C12.2139 11.0694 12.6667 9.96665 12.6667 8.66665C12.6667 7.36665 12.2139 6.26387 11.3084 5.35832C10.4028 4.45276 9.30002 3.99998 8.00002 3.99998C6.70003 3.99998 5.59725 4.45276 4.69169 5.35832C3.78614 6.26387 3.33336 7.36665 3.33336 8.66665C3.33336 9.96665 3.78614 11.0694 4.69169 11.975C5.59725 12.8805 6.70003 13.3333 8.00002 13.3333Z" fill="white"/>
</g>
</svg>
