<svg width="66" height="44" viewBox="0 0 66 44" fill="none" xmlns="http://www.w3.org/2000/svg">
<circle cx="12" cy="16" r="10.5" fill="#C10000" stroke="white" stroke-width="3" stroke-dasharray="5 5"/>
<circle opacity="0.1" cx="12" cy="16" r="8" stroke="black" stroke-width="2"/>
<circle cx="12" cy="14" r="10.5" fill="#C10000" stroke="white" stroke-width="3" stroke-dasharray="5 5"/>
<circle opacity="0.1" cx="12" cy="14" r="8" stroke="black" stroke-width="2"/>
<circle cx="12" cy="12" r="10.5" fill="#C10000" stroke="white" stroke-width="3" stroke-dasharray="5 5"/>
<circle opacity="0.1" cx="12" cy="12" r="8" stroke="black" stroke-width="2"/>
<circle cx="40" cy="16" r="10.5" fill="#0D8C40" stroke="white" stroke-width="3" stroke-dasharray="5 5"/>
<circle opacity="0.1" cx="40" cy="16" r="8" stroke="black" stroke-width="2"/>
<circle cx="40" cy="14" r="10.5" fill="#0D8C40" stroke="white" stroke-width="3" stroke-dasharray="5 5"/>
<circle opacity="0.1" cx="40" cy="14" r="8" stroke="black" stroke-width="2"/>
<circle cx="40" cy="12" r="10.5" fill="#0D8C40" stroke="white" stroke-width="3" stroke-dasharray="5 5"/>
<circle opacity="0.1" cx="40" cy="12" r="8" stroke="black" stroke-width="2"/>
<circle cx="26" cy="32" r="10.5" fill="white" stroke="#444343" stroke-width="3" stroke-dasharray="5 5"/>
<circle opacity="0.1" cx="26" cy="32" r="8" stroke="#444343" stroke-width="2"/>
<circle cx="26" cy="30" r="10.5" fill="white" stroke="#444343" stroke-width="3" stroke-dasharray="5 5"/>
<circle opacity="0.1" cx="26" cy="30" r="8" stroke="#444343" stroke-width="2"/>
<circle cx="54" cy="32" r="10.5" fill="#4E35E9" stroke="white" stroke-width="3" stroke-dasharray="5 5"/>
<circle opacity="0.1" cx="54" cy="32" r="8" stroke="black" stroke-width="2"/>
<circle cx="54" cy="30" r="10.5" fill="#4E35E9" stroke="white" stroke-width="3" stroke-dasharray="5 5"/>
<circle opacity="0.1" cx="54" cy="30" r="8" stroke="black" stroke-width="2"/>
<circle cx="54" cy="28" r="10.5" fill="#4E35E9" stroke="white" stroke-width="3" stroke-dasharray="5 5"/>
<circle opacity="0.1" cx="54" cy="28" r="8" stroke="black" stroke-width="2"/>
</svg>
