<svg width="36" height="36" viewBox="0 0 36 36" fill="none" xmlns="http://www.w3.org/2000/svg">
<mask id="mask0_76_1332" style="mask-type:alpha" maskUnits="userSpaceOnUse" x="0" y="0" width="36" height="36">
<rect width="36" height="36" fill="#D9D9D9"/>
</mask>
<g mask="url(#mask0_76_1332)">
<path d="M1.5 30V25.8C1.5 24.95 1.71875 24.1687 2.15625 23.4562C2.59375 22.7437 3.175 22.2 3.9 21.825C5.45 21.05 7.025 20.4688 8.625 20.0812C10.225 19.6937 11.85 19.5 13.5 19.5C15.15 19.5 16.775 19.6937 18.375 20.0812C19.975 20.4688 21.55 21.05 23.1 21.825C23.825 22.2 24.4062 22.7437 24.8438 23.4562C25.2812 24.1687 25.5 24.95 25.5 25.8V30H1.5ZM28.5 30V25.5C28.5 24.4 28.1938 23.3438 27.5813 22.3312C26.9688 21.3187 26.1 20.45 24.975 19.725C26.25 19.875 27.45 20.1313 28.575 20.4938C29.7 20.8563 30.75 21.3 31.725 21.825C32.625 22.325 33.3125 22.8813 33.7875 23.4938C34.2625 24.1063 34.5 24.775 34.5 25.5V30H28.5ZM13.5 18C11.85 18 10.4375 17.4125 9.2625 16.2375C8.0875 15.0625 7.5 13.65 7.5 12C7.5 10.35 8.0875 8.9375 9.2625 7.7625C10.4375 6.5875 11.85 6 13.5 6C15.15 6 16.5625 6.5875 17.7375 7.7625C18.9125 8.9375 19.5 10.35 19.5 12C19.5 13.65 18.9125 15.0625 17.7375 16.2375C16.5625 17.4125 15.15 18 13.5 18ZM28.5 12C28.5 13.65 27.9125 15.0625 26.7375 16.2375C25.5625 17.4125 24.15 18 22.5 18C22.225 18 21.875 17.9688 21.45 17.9062C21.025 17.8438 20.675 17.775 20.4 17.7C21.075 16.9 21.5938 16.0125 21.9562 15.0375C22.3188 14.0625 22.5 13.05 22.5 12C22.5 10.95 22.3188 9.9375 21.9562 8.9625C21.5938 7.9875 21.075 7.1 20.4 6.3C20.75 6.175 21.1 6.09375 21.45 6.05625C21.8 6.01875 22.15 6 22.5 6C24.15 6 25.5625 6.5875 26.7375 7.7625C27.9125 8.9375 28.5 10.35 28.5 12ZM4.5 27H22.5V25.8C22.5 25.525 22.4312 25.275 22.2938 25.05C22.1562 24.825 21.975 24.65 21.75 24.525C20.4 23.85 19.0375 23.3438 17.6625 23.0063C16.2875 22.6688 14.9 22.5 13.5 22.5C12.1 22.5 10.7125 22.6688 9.3375 23.0063C7.9625 23.3438 6.6 23.85 5.25 24.525C5.025 24.65 4.84375 24.825 4.70625 25.05C4.56875 25.275 4.5 25.525 4.5 25.8V27ZM13.5 15C14.325 15 15.0313 14.7063 15.6188 14.1187C16.2063 13.5312 16.5 12.825 16.5 12C16.5 11.175 16.2063 10.4688 15.6188 9.88125C15.0313 9.29375 14.325 9 13.5 9C12.675 9 11.9688 9.29375 11.3813 9.88125C10.7937 10.4688 10.5 11.175 10.5 12C10.5 12.825 10.7937 13.5312 11.3813 14.1187C11.9688 14.7063 12.675 15 13.5 15Z" fill="white"/>
</g>
</svg>
