<svg width="34" height="24" viewBox="0 0 34 24" fill="none" xmlns="http://www.w3.org/2000/svg">
<path d="M0.5 24V19.8C0.5 18.95 0.71875 18.1687 1.15625 17.4562C1.59375 16.7437 2.175 16.2 2.9 15.825C4.45 15.05 6.025 14.4688 7.625 14.0812C9.225 13.6937 10.85 13.5 12.5 13.5C14.15 13.5 15.775 13.6937 17.375 14.0812C18.975 14.4688 20.55 15.05 22.1 15.825C22.825 16.2 23.4062 16.7437 23.8438 17.4562C24.2812 18.1687 24.5 18.95 24.5 19.8V24H0.5ZM27.5 24V19.5C27.5 18.4 27.1938 17.3438 26.5813 16.3312C25.9688 15.3187 25.1 14.45 23.975 13.725C25.25 13.875 26.45 14.1313 27.575 14.4938C28.7 14.8563 29.75 15.3 30.725 15.825C31.625 16.325 32.3125 16.8813 32.7875 17.4938C33.2625 18.1063 33.5 18.775 33.5 19.5V24H27.5ZM12.5 12C10.85 12 9.4375 11.4125 8.2625 10.2375C7.0875 9.0625 6.5 7.65 6.5 6C6.5 4.35 7.0875 2.9375 8.2625 1.7625C9.4375 0.5875 10.85 0 12.5 0C14.15 0 15.5625 0.5875 16.7375 1.7625C17.9125 2.9375 18.5 4.35 18.5 6C18.5 7.65 17.9125 9.0625 16.7375 10.2375C15.5625 11.4125 14.15 12 12.5 12ZM27.5 6C27.5 7.65 26.9125 9.0625 25.7375 10.2375C24.5625 11.4125 23.15 12 21.5 12C21.225 12 20.875 11.9688 20.45 11.9062C20.025 11.8438 19.675 11.775 19.4 11.7C20.075 10.9 20.5938 10.0125 20.9562 9.0375C21.3188 8.0625 21.5 7.05 21.5 6C21.5 4.95 21.3188 3.9375 20.9562 2.9625C20.5938 1.9875 20.075 1.1 19.4 0.3C19.75 0.175 20.1 0.09375 20.45 0.05625C20.8 0.01875 21.15 0 21.5 0C23.15 0 24.5625 0.5875 25.7375 1.7625C26.9125 2.9375 27.5 4.35 27.5 6ZM3.5 21H21.5V19.8C21.5 19.525 21.4312 19.275 21.2938 19.05C21.1562 18.825 20.975 18.65 20.75 18.525C19.4 17.85 18.0375 17.3438 16.6625 17.0063C15.2875 16.6688 13.9 16.5 12.5 16.5C11.1 16.5 9.7125 16.6688 8.3375 17.0063C6.9625 17.3438 5.6 17.85 4.25 18.525C4.025 18.65 3.84375 18.825 3.70625 19.05C3.56875 19.275 3.5 19.525 3.5 19.8V21ZM12.5 9C13.325 9 14.0313 8.70625 14.6188 8.11875C15.2063 7.53125 15.5 6.825 15.5 6C15.5 5.175 15.2063 4.46875 14.6188 3.88125C14.0313 3.29375 13.325 3 12.5 3C11.675 3 10.9688 3.29375 10.3813 3.88125C9.79375 4.46875 9.5 5.175 9.5 6C9.5 6.825 9.79375 7.53125 10.3813 8.11875C10.9688 8.70625 11.675 9 12.5 9Z" fill="#00483C"/>
</svg>
