<svg width="80" height="54" viewBox="0 0 80 54" fill="none" xmlns="http://www.w3.org/2000/svg">
<circle cx="68" cy="26" r="10.5" fill="black" stroke="white" stroke-width="3" stroke-dasharray="5 5"/>
<circle opacity="0.1" cx="68" cy="26" r="8" stroke="white" stroke-width="2"/>
<circle cx="68" cy="24" r="10.5" fill="black" stroke="white" stroke-width="3" stroke-dasharray="5 5"/>
<circle opacity="0.1" cx="68" cy="24" r="8" stroke="white" stroke-width="2"/>
<circle cx="68" cy="22" r="10.5" fill="black" stroke="white" stroke-width="3" stroke-dasharray="5 5"/>
<circle opacity="0.1" cx="68" cy="22" r="8" stroke="white" stroke-width="2"/>
<circle cx="68" cy="20" r="10.5" fill="black" stroke="white" stroke-width="3" stroke-dasharray="5 5"/>
<circle opacity="0.1" cx="68" cy="20" r="8" stroke="white" stroke-width="2"/>
<circle cx="68" cy="18" r="10.5" fill="black" stroke="white" stroke-width="3" stroke-dasharray="5 5"/>
<circle opacity="0.1" cx="68" cy="18" r="8" stroke="white" stroke-width="2"/>
<circle cx="12" cy="26" r="10.5" fill="#C10000" stroke="white" stroke-width="3" stroke-dasharray="5 5"/>
<circle opacity="0.1" cx="12" cy="26" r="8" stroke="black" stroke-width="2"/>
<circle cx="12" cy="24" r="10.5" fill="#C10000" stroke="white" stroke-width="3" stroke-dasharray="5 5"/>
<circle opacity="0.1" cx="12" cy="24" r="8" stroke="black" stroke-width="2"/>
<circle cx="12" cy="22" r="10.5" fill="#C10000" stroke="white" stroke-width="3" stroke-dasharray="5 5"/>
<circle opacity="0.1" cx="12" cy="22" r="8" stroke="black" stroke-width="2"/>
<circle cx="12" cy="20" r="10.5" fill="#C10000" stroke="white" stroke-width="3" stroke-dasharray="5 5"/>
<circle opacity="0.1" cx="12" cy="20" r="8" stroke="black" stroke-width="2"/>
<circle cx="12" cy="18" r="10.5" fill="#C10000" stroke="white" stroke-width="3" stroke-dasharray="5 5"/>
<circle opacity="0.1" cx="12" cy="18" r="8" stroke="black" stroke-width="2"/>
<circle cx="12" cy="16" r="10.5" fill="#C10000" stroke="white" stroke-width="3" stroke-dasharray="5 5"/>
<circle opacity="0.1" cx="12" cy="16" r="8" stroke="black" stroke-width="2"/>
<circle cx="12" cy="14" r="10.5" fill="#C10000" stroke="white" stroke-width="3" stroke-dasharray="5 5"/>
<circle opacity="0.1" cx="12" cy="14" r="8" stroke="black" stroke-width="2"/>
<circle cx="40" cy="26" r="10.5" fill="#0D8C40" stroke="white" stroke-width="3" stroke-dasharray="5 5"/>
<circle opacity="0.1" cx="40" cy="26" r="8" stroke="black" stroke-width="2"/>
<circle cx="40" cy="24" r="10.5" fill="#0D8C40" stroke="white" stroke-width="3" stroke-dasharray="5 5"/>
<circle opacity="0.1" cx="40" cy="24" r="8" stroke="black" stroke-width="2"/>
<circle cx="40" cy="22" r="10.5" fill="#0D8C40" stroke="white" stroke-width="3" stroke-dasharray="5 5"/>
<circle opacity="0.1" cx="40" cy="22" r="8" stroke="black" stroke-width="2"/>
<circle cx="40" cy="20" r="10.5" fill="#0D8C40" stroke="white" stroke-width="3" stroke-dasharray="5 5"/>
<circle opacity="0.1" cx="40" cy="20" r="8" stroke="black" stroke-width="2"/>
<circle cx="40" cy="18" r="10.5" fill="#0D8C40" stroke="white" stroke-width="3" stroke-dasharray="5 5"/>
<circle opacity="0.1" cx="40" cy="18" r="8" stroke="black" stroke-width="2"/>
<circle cx="40" cy="16" r="10.5" fill="#0D8C40" stroke="white" stroke-width="3" stroke-dasharray="5 5"/>
<circle opacity="0.1" cx="40" cy="16" r="8" stroke="black" stroke-width="2"/>
<circle cx="40" cy="14" r="10.5" fill="#0D8C40" stroke="white" stroke-width="3" stroke-dasharray="5 5"/>
<circle opacity="0.1" cx="40" cy="14" r="8" stroke="black" stroke-width="2"/>
<circle cx="40" cy="12" r="10.5" fill="#0D8C40" stroke="white" stroke-width="3" stroke-dasharray="5 5"/>
<circle opacity="0.1" cx="40" cy="12" r="8" stroke="black" stroke-width="2"/>
<circle cx="26" cy="42" r="10.5" fill="white" stroke="#444343" stroke-width="3" stroke-dasharray="5 5"/>
<circle opacity="0.1" cx="26" cy="42" r="8" stroke="#444343" stroke-width="2"/>
<circle cx="26" cy="40" r="10.5" fill="white" stroke="#444343" stroke-width="3" stroke-dasharray="5 5"/>
<circle opacity="0.1" cx="26" cy="40" r="8" stroke="#444343" stroke-width="2"/>
<circle cx="26" cy="38" r="10.5" fill="white" stroke="#444343" stroke-width="3" stroke-dasharray="5 5"/>
<circle opacity="0.1" cx="26" cy="38" r="8" stroke="#444343" stroke-width="2"/>
<circle cx="26" cy="36" r="10.5" fill="white" stroke="#444343" stroke-width="3" stroke-dasharray="5 5"/>
<circle opacity="0.1" cx="26" cy="36" r="8" stroke="#444343" stroke-width="2"/>
<circle cx="26" cy="34" r="10.5" fill="white" stroke="#444343" stroke-width="3" stroke-dasharray="5 5"/>
<circle opacity="0.1" cx="26" cy="34" r="8" stroke="#444343" stroke-width="2"/>
<circle cx="54" cy="42" r="10.5" fill="#4E35E9" stroke="white" stroke-width="3" stroke-dasharray="5 5"/>
<circle opacity="0.1" cx="54" cy="42" r="8" stroke="black" stroke-width="2"/>
<circle cx="54" cy="40" r="10.5" fill="#4E35E9" stroke="white" stroke-width="3" stroke-dasharray="5 5"/>
<circle opacity="0.1" cx="54" cy="40" r="8" stroke="black" stroke-width="2"/>
<circle cx="54" cy="38" r="10.5" fill="#4E35E9" stroke="white" stroke-width="3" stroke-dasharray="5 5"/>
<circle opacity="0.1" cx="54" cy="38" r="8" stroke="black" stroke-width="2"/>
<circle cx="54" cy="36" r="10.5" fill="#4E35E9" stroke="white" stroke-width="3" stroke-dasharray="5 5"/>
<circle opacity="0.1" cx="54" cy="36" r="8" stroke="black" stroke-width="2"/>
<circle cx="54" cy="34" r="10.5" fill="#4E35E9" stroke="white" stroke-width="3" stroke-dasharray="5 5"/>
<circle opacity="0.1" cx="54" cy="34" r="8" stroke="black" stroke-width="2"/>
<circle cx="54" cy="32" r="10.5" fill="#4E35E9" stroke="white" stroke-width="3" stroke-dasharray="5 5"/>
<circle opacity="0.1" cx="54" cy="32" r="8" stroke="black" stroke-width="2"/>
</svg>
