<svg width="80" height="78" viewBox="0 0 80 78" fill="none" xmlns="http://www.w3.org/2000/svg">
<circle cx="68" cy="50" r="10.5" fill="black" stroke="white" stroke-width="3" stroke-dasharray="5 5"/>
<circle opacity="0.1" cx="68" cy="50" r="8" stroke="white" stroke-width="2"/>
<circle cx="68" cy="48" r="10.5" fill="black" stroke="white" stroke-width="3" stroke-dasharray="5 5"/>
<circle opacity="0.1" cx="68" cy="48" r="8" stroke="white" stroke-width="2"/>
<circle cx="68" cy="46" r="10.5" fill="black" stroke="white" stroke-width="3" stroke-dasharray="5 5"/>
<circle opacity="0.1" cx="68" cy="46" r="8" stroke="white" stroke-width="2"/>
<circle cx="68" cy="44" r="10.5" fill="black" stroke="white" stroke-width="3" stroke-dasharray="5 5"/>
<circle opacity="0.1" cx="68" cy="44" r="8" stroke="white" stroke-width="2"/>
<circle cx="68" cy="42" r="10.5" fill="black" stroke="white" stroke-width="3" stroke-dasharray="5 5"/>
<circle opacity="0.1" cx="68" cy="42" r="8" stroke="white" stroke-width="2"/>
<circle cx="68" cy="40" r="10.5" fill="black" stroke="white" stroke-width="3" stroke-dasharray="5 5"/>
<circle opacity="0.1" cx="68" cy="40" r="8" stroke="white" stroke-width="2"/>
<circle cx="68" cy="38" r="10.5" fill="black" stroke="white" stroke-width="3" stroke-dasharray="5 5"/>
<circle opacity="0.1" cx="68" cy="38" r="8" stroke="white" stroke-width="2"/>
<circle cx="68" cy="36" r="10.5" fill="black" stroke="white" stroke-width="3" stroke-dasharray="5 5"/>
<circle opacity="0.1" cx="68" cy="36" r="8" stroke="white" stroke-width="2"/>
<circle cx="68" cy="34" r="10.5" fill="black" stroke="white" stroke-width="3" stroke-dasharray="5 5"/>
<circle opacity="0.1" cx="68" cy="34" r="8" stroke="white" stroke-width="2"/>
<circle cx="68" cy="32" r="10.5" fill="black" stroke="white" stroke-width="3" stroke-dasharray="5 5"/>
<circle opacity="0.1" cx="68" cy="32" r="8" stroke="white" stroke-width="2"/>
<circle cx="68" cy="30" r="10.5" fill="black" stroke="white" stroke-width="3" stroke-dasharray="5 5"/>
<circle opacity="0.1" cx="68" cy="30" r="8" stroke="white" stroke-width="2"/>
<circle cx="68" cy="28" r="10.5" fill="black" stroke="white" stroke-width="3" stroke-dasharray="5 5"/>
<circle opacity="0.1" cx="68" cy="28" r="8" stroke="white" stroke-width="2"/>
<circle cx="68" cy="26" r="10.5" fill="black" stroke="white" stroke-width="3" stroke-dasharray="5 5"/>
<circle opacity="0.1" cx="68" cy="26" r="8" stroke="white" stroke-width="2"/>
<circle cx="68" cy="24" r="10.5" fill="black" stroke="white" stroke-width="3" stroke-dasharray="5 5"/>
<circle opacity="0.1" cx="68" cy="24" r="8" stroke="white" stroke-width="2"/>
<circle cx="68" cy="22" r="10.5" fill="black" stroke="white" stroke-width="3" stroke-dasharray="5 5"/>
<circle opacity="0.1" cx="68" cy="22" r="8" stroke="white" stroke-width="2"/>
<circle cx="68" cy="20" r="10.5" fill="black" stroke="white" stroke-width="3" stroke-dasharray="5 5"/>
<circle opacity="0.1" cx="68" cy="20" r="8" stroke="white" stroke-width="2"/>
<circle cx="68" cy="18" r="10.5" fill="black" stroke="white" stroke-width="3" stroke-dasharray="5 5"/>
<circle opacity="0.1" cx="68" cy="18" r="8" stroke="white" stroke-width="2"/>
<circle cx="68" cy="16" r="10.5" fill="black" stroke="white" stroke-width="3" stroke-dasharray="5 5"/>
<circle opacity="0.1" cx="68" cy="16" r="8" stroke="white" stroke-width="2"/>
<circle cx="68" cy="14" r="10.5" fill="black" stroke="white" stroke-width="3" stroke-dasharray="5 5"/>
<circle opacity="0.1" cx="68" cy="14" r="8" stroke="white" stroke-width="2"/>
<circle cx="12" cy="50" r="10.5" fill="#C10000" stroke="white" stroke-width="3" stroke-dasharray="5 5"/>
<circle opacity="0.1" cx="12" cy="50" r="8" stroke="black" stroke-width="2"/>
<circle cx="12" cy="48" r="10.5" fill="#C10000" stroke="white" stroke-width="3" stroke-dasharray="5 5"/>
<circle opacity="0.1" cx="12" cy="48" r="8" stroke="black" stroke-width="2"/>
<circle cx="12" cy="46" r="10.5" fill="#C10000" stroke="white" stroke-width="3" stroke-dasharray="5 5"/>
<circle opacity="0.1" cx="12" cy="46" r="8" stroke="black" stroke-width="2"/>
<circle cx="12" cy="44" r="10.5" fill="#C10000" stroke="white" stroke-width="3" stroke-dasharray="5 5"/>
<circle opacity="0.1" cx="12" cy="44" r="8" stroke="black" stroke-width="2"/>
<circle cx="12" cy="42" r="10.5" fill="#C10000" stroke="white" stroke-width="3" stroke-dasharray="5 5"/>
<circle opacity="0.1" cx="12" cy="42" r="8" stroke="black" stroke-width="2"/>
<circle cx="12" cy="40" r="10.5" fill="#C10000" stroke="white" stroke-width="3" stroke-dasharray="5 5"/>
<circle opacity="0.1" cx="12" cy="40" r="8" stroke="black" stroke-width="2"/>
<circle cx="12" cy="38" r="10.5" fill="#C10000" stroke="white" stroke-width="3" stroke-dasharray="5 5"/>
<circle opacity="0.1" cx="12" cy="38" r="8" stroke="black" stroke-width="2"/>
<circle cx="12" cy="36" r="10.5" fill="#C10000" stroke="white" stroke-width="3" stroke-dasharray="5 5"/>
<circle opacity="0.1" cx="12" cy="36" r="8" stroke="black" stroke-width="2"/>
<circle cx="12" cy="34" r="10.5" fill="#C10000" stroke="white" stroke-width="3" stroke-dasharray="5 5"/>
<circle opacity="0.1" cx="12" cy="34" r="8" stroke="black" stroke-width="2"/>
<circle cx="12" cy="32" r="10.5" fill="#C10000" stroke="white" stroke-width="3" stroke-dasharray="5 5"/>
<circle opacity="0.1" cx="12" cy="32" r="8" stroke="black" stroke-width="2"/>
<circle cx="12" cy="30" r="10.5" fill="#C10000" stroke="white" stroke-width="3" stroke-dasharray="5 5"/>
<circle opacity="0.1" cx="12" cy="30" r="8" stroke="black" stroke-width="2"/>
<circle cx="12" cy="28" r="10.5" fill="#C10000" stroke="white" stroke-width="3" stroke-dasharray="5 5"/>
<circle opacity="0.1" cx="12" cy="28" r="8" stroke="black" stroke-width="2"/>
<circle cx="12" cy="26" r="10.5" fill="#C10000" stroke="white" stroke-width="3" stroke-dasharray="5 5"/>
<circle opacity="0.1" cx="12" cy="26" r="8" stroke="black" stroke-width="2"/>
<circle cx="12" cy="24" r="10.5" fill="#C10000" stroke="white" stroke-width="3" stroke-dasharray="5 5"/>
<circle opacity="0.1" cx="12" cy="24" r="8" stroke="black" stroke-width="2"/>
<circle cx="40" cy="50" r="10.5" fill="#0D8C40" stroke="white" stroke-width="3" stroke-dasharray="5 5"/>
<circle opacity="0.1" cx="40" cy="50" r="8" stroke="black" stroke-width="2"/>
<circle cx="40" cy="48" r="10.5" fill="#0D8C40" stroke="white" stroke-width="3" stroke-dasharray="5 5"/>
<circle opacity="0.1" cx="40" cy="48" r="8" stroke="black" stroke-width="2"/>
<circle cx="40" cy="46" r="10.5" fill="#0D8C40" stroke="white" stroke-width="3" stroke-dasharray="5 5"/>
<circle opacity="0.1" cx="40" cy="46" r="8" stroke="black" stroke-width="2"/>
<circle cx="40" cy="44" r="10.5" fill="#0D8C40" stroke="white" stroke-width="3" stroke-dasharray="5 5"/>
<circle opacity="0.1" cx="40" cy="44" r="8" stroke="black" stroke-width="2"/>
<circle cx="40" cy="42" r="10.5" fill="#0D8C40" stroke="white" stroke-width="3" stroke-dasharray="5 5"/>
<circle opacity="0.1" cx="40" cy="42" r="8" stroke="black" stroke-width="2"/>
<circle cx="40" cy="40" r="10.5" fill="#0D8C40" stroke="white" stroke-width="3" stroke-dasharray="5 5"/>
<circle opacity="0.1" cx="40" cy="40" r="8" stroke="black" stroke-width="2"/>
<circle cx="40" cy="38" r="10.5" fill="#0D8C40" stroke="white" stroke-width="3" stroke-dasharray="5 5"/>
<circle opacity="0.1" cx="40" cy="38" r="8" stroke="black" stroke-width="2"/>
<circle cx="40" cy="36" r="10.5" fill="#0D8C40" stroke="white" stroke-width="3" stroke-dasharray="5 5"/>
<circle opacity="0.1" cx="40" cy="36" r="8" stroke="black" stroke-width="2"/>
<circle cx="40" cy="34" r="10.5" fill="#0D8C40" stroke="white" stroke-width="3" stroke-dasharray="5 5"/>
<circle opacity="0.1" cx="40" cy="34" r="8" stroke="black" stroke-width="2"/>
<circle cx="40" cy="32" r="10.5" fill="#0D8C40" stroke="white" stroke-width="3" stroke-dasharray="5 5"/>
<circle opacity="0.1" cx="40" cy="32" r="8" stroke="black" stroke-width="2"/>
<circle cx="40" cy="30" r="10.5" fill="#0D8C40" stroke="white" stroke-width="3" stroke-dasharray="5 5"/>
<circle opacity="0.1" cx="40" cy="30" r="8" stroke="black" stroke-width="2"/>
<circle cx="40" cy="28" r="10.5" fill="#0D8C40" stroke="white" stroke-width="3" stroke-dasharray="5 5"/>
<circle opacity="0.1" cx="40" cy="28" r="8" stroke="black" stroke-width="2"/>
<circle cx="40" cy="26" r="10.5" fill="#0D8C40" stroke="white" stroke-width="3" stroke-dasharray="5 5"/>
<circle opacity="0.1" cx="40" cy="26" r="8" stroke="black" stroke-width="2"/>
<circle cx="40" cy="24" r="10.5" fill="#0D8C40" stroke="white" stroke-width="3" stroke-dasharray="5 5"/>
<circle opacity="0.1" cx="40" cy="24" r="8" stroke="black" stroke-width="2"/>
<circle cx="40" cy="22" r="10.5" fill="#0D8C40" stroke="white" stroke-width="3" stroke-dasharray="5 5"/>
<circle opacity="0.1" cx="40" cy="22" r="8" stroke="black" stroke-width="2"/>
<circle cx="40" cy="20" r="10.5" fill="#0D8C40" stroke="white" stroke-width="3" stroke-dasharray="5 5"/>
<circle opacity="0.1" cx="40" cy="20" r="8" stroke="black" stroke-width="2"/>
<circle cx="40" cy="18" r="10.5" fill="#0D8C40" stroke="white" stroke-width="3" stroke-dasharray="5 5"/>
<circle opacity="0.1" cx="40" cy="18" r="8" stroke="black" stroke-width="2"/>
<circle cx="40" cy="16" r="10.5" fill="#0D8C40" stroke="white" stroke-width="3" stroke-dasharray="5 5"/>
<circle opacity="0.1" cx="40" cy="16" r="8" stroke="black" stroke-width="2"/>
<circle cx="40" cy="14" r="10.5" fill="#0D8C40" stroke="white" stroke-width="3" stroke-dasharray="5 5"/>
<circle opacity="0.1" cx="40" cy="14" r="8" stroke="black" stroke-width="2"/>
<circle cx="40" cy="12" r="10.5" fill="#0D8C40" stroke="white" stroke-width="3" stroke-dasharray="5 5"/>
<circle opacity="0.1" cx="40" cy="12" r="8" stroke="black" stroke-width="2"/>
<circle cx="26" cy="66" r="10.5" fill="white" stroke="#444343" stroke-width="3" stroke-dasharray="5 5"/>
<circle opacity="0.1" cx="26" cy="66" r="8" stroke="#444343" stroke-width="2"/>
<circle cx="26" cy="64" r="10.5" fill="white" stroke="#444343" stroke-width="3" stroke-dasharray="5 5"/>
<circle opacity="0.1" cx="26" cy="64" r="8" stroke="#444343" stroke-width="2"/>
<circle cx="26" cy="62" r="10.5" fill="white" stroke="#444343" stroke-width="3" stroke-dasharray="5 5"/>
<circle opacity="0.1" cx="26" cy="62" r="8" stroke="#444343" stroke-width="2"/>
<circle cx="26" cy="60" r="10.5" fill="white" stroke="#444343" stroke-width="3" stroke-dasharray="5 5"/>
<circle opacity="0.1" cx="26" cy="60" r="8" stroke="#444343" stroke-width="2"/>
<circle cx="26" cy="58" r="10.5" fill="white" stroke="#444343" stroke-width="3" stroke-dasharray="5 5"/>
<circle opacity="0.1" cx="26" cy="58" r="8" stroke="#444343" stroke-width="2"/>
<circle cx="26" cy="56" r="10.5" fill="white" stroke="#444343" stroke-width="3" stroke-dasharray="5 5"/>
<circle opacity="0.1" cx="26" cy="56" r="8" stroke="#444343" stroke-width="2"/>
<circle cx="26" cy="54" r="10.5" fill="white" stroke="#444343" stroke-width="3" stroke-dasharray="5 5"/>
<circle opacity="0.1" cx="26" cy="54" r="8" stroke="#444343" stroke-width="2"/>
<circle cx="26" cy="52" r="10.5" fill="white" stroke="#444343" stroke-width="3" stroke-dasharray="5 5"/>
<circle opacity="0.1" cx="26" cy="52" r="8" stroke="#444343" stroke-width="2"/>
<circle cx="26" cy="50" r="10.5" fill="white" stroke="#444343" stroke-width="3" stroke-dasharray="5 5"/>
<circle opacity="0.1" cx="26" cy="50" r="8" stroke="#444343" stroke-width="2"/>
<circle cx="26" cy="48" r="10.5" fill="white" stroke="#444343" stroke-width="3" stroke-dasharray="5 5"/>
<circle opacity="0.1" cx="26" cy="48" r="8" stroke="#444343" stroke-width="2"/>
<circle cx="54" cy="66" r="10.5" fill="#4E35E9" stroke="white" stroke-width="3" stroke-dasharray="5 5"/>
<circle opacity="0.1" cx="54" cy="66" r="8" stroke="black" stroke-width="2"/>
<circle cx="54" cy="64" r="10.5" fill="#4E35E9" stroke="white" stroke-width="3" stroke-dasharray="5 5"/>
<circle opacity="0.1" cx="54" cy="64" r="8" stroke="black" stroke-width="2"/>
<circle cx="54" cy="62" r="10.5" fill="#4E35E9" stroke="white" stroke-width="3" stroke-dasharray="5 5"/>
<circle opacity="0.1" cx="54" cy="62" r="8" stroke="black" stroke-width="2"/>
<circle cx="54" cy="60" r="10.5" fill="#4E35E9" stroke="white" stroke-width="3" stroke-dasharray="5 5"/>
<circle opacity="0.1" cx="54" cy="60" r="8" stroke="black" stroke-width="2"/>
<circle cx="54" cy="58" r="10.5" fill="#4E35E9" stroke="white" stroke-width="3" stroke-dasharray="5 5"/>
<circle opacity="0.1" cx="54" cy="58" r="8" stroke="black" stroke-width="2"/>
<circle cx="54" cy="56" r="10.5" fill="#4E35E9" stroke="white" stroke-width="3" stroke-dasharray="5 5"/>
<circle opacity="0.1" cx="54" cy="56" r="8" stroke="black" stroke-width="2"/>
<circle cx="54" cy="54" r="10.5" fill="#4E35E9" stroke="white" stroke-width="3" stroke-dasharray="5 5"/>
<circle opacity="0.1" cx="54" cy="54" r="8" stroke="black" stroke-width="2"/>
<circle cx="54" cy="52" r="10.5" fill="#4E35E9" stroke="white" stroke-width="3" stroke-dasharray="5 5"/>
<circle opacity="0.1" cx="54" cy="52" r="8" stroke="black" stroke-width="2"/>
<circle cx="54" cy="50" r="10.5" fill="#4E35E9" stroke="white" stroke-width="3" stroke-dasharray="5 5"/>
<circle opacity="0.1" cx="54" cy="50" r="8" stroke="black" stroke-width="2"/>
<circle cx="54" cy="48" r="10.5" fill="#4E35E9" stroke="white" stroke-width="3" stroke-dasharray="5 5"/>
<circle opacity="0.1" cx="54" cy="48" r="8" stroke="black" stroke-width="2"/>
<circle cx="54" cy="46" r="10.5" fill="#4E35E9" stroke="white" stroke-width="3" stroke-dasharray="5 5"/>
<circle opacity="0.1" cx="54" cy="46" r="8" stroke="black" stroke-width="2"/>
<circle cx="54" cy="44" r="10.5" fill="#4E35E9" stroke="white" stroke-width="3" stroke-dasharray="5 5"/>
<circle opacity="0.1" cx="54" cy="44" r="8" stroke="black" stroke-width="2"/>
<circle cx="54" cy="42" r="10.5" fill="#4E35E9" stroke="white" stroke-width="3" stroke-dasharray="5 5"/>
<circle opacity="0.1" cx="54" cy="42" r="8" stroke="black" stroke-width="2"/>
<circle cx="54" cy="40" r="10.5" fill="#4E35E9" stroke="white" stroke-width="3" stroke-dasharray="5 5"/>
<circle opacity="0.1" cx="54" cy="40" r="8" stroke="black" stroke-width="2"/>
<circle cx="54" cy="38" r="10.5" fill="#4E35E9" stroke="white" stroke-width="3" stroke-dasharray="5 5"/>
<circle opacity="0.1" cx="54" cy="38" r="8" stroke="black" stroke-width="2"/>
<circle cx="54" cy="36" r="10.5" fill="#4E35E9" stroke="white" stroke-width="3" stroke-dasharray="5 5"/>
<circle opacity="0.1" cx="54" cy="36" r="8" stroke="black" stroke-width="2"/>
<circle cx="54" cy="34" r="10.5" fill="#4E35E9" stroke="white" stroke-width="3" stroke-dasharray="5 5"/>
<circle opacity="0.1" cx="54" cy="34" r="8" stroke="black" stroke-width="2"/>
</svg>
