<svg width="36" height="36" viewBox="0 0 36 36" fill="none" xmlns="http://www.w3.org/2000/svg">
<mask id="mask0_76_735" style="mask-type:alpha" maskUnits="userSpaceOnUse" x="0" y="0" width="36" height="36">
<rect width="36" height="36" fill="#D9D9D9"/>
</mask>
<g mask="url(#mask0_76_735)">
<path d="M22.8 22.1999L24.525 15.9749L19.2 12.2999L17.475 18.5249L22.8 22.1999ZM5.99998 28.2374L4.76248 27.6374C3.98748 27.3124 3.46248 26.7561 3.18748 25.9686C2.91248 25.1811 2.94998 24.3999 3.29998 23.6249L5.99998 17.7749V28.2374ZM12 31.4999C11.175 31.4999 10.4687 31.1999 9.88123 30.5999C9.29373 29.9999 8.99998 29.2874 8.99998 28.4624V19.4999L13.0125 30.5249C13.0875 30.6999 13.15 30.8686 13.2 31.0311C13.25 31.1936 13.3375 31.3499 13.4625 31.4999H12ZM19.725 31.3124C18.95 31.5874 18.175 31.5499 17.4 31.1999C16.625 30.8499 16.1 30.2874 15.825 29.5124L9.18748 11.1749C8.91248 10.3999 8.94998 9.63111 9.29998 8.86861C9.64998 8.10611 10.2125 7.58736 10.9875 7.31236L22.275 3.18736C23.05 2.91236 23.8187 2.94986 24.5812 3.29986C25.3437 3.64986 25.8625 4.21236 26.1375 4.98736L32.8125 23.3249C33.0875 24.0999 33.05 24.8686 32.7 25.6311C32.35 26.3936 31.7875 26.9124 31.0125 27.1874L19.725 31.3124ZM18.675 28.4999L30 24.3749L23.2875 5.99986L12 10.1249L18.675 28.4999Z" fill="white"/>
</g>
</svg>
