<svg width="88" height="128" viewBox="0 0 88 128" fill="none" xmlns="http://www.w3.org/2000/svg">
<rect x="2" y="2" width="84" height="124" rx="14" fill="white" stroke="#D2D2D2" stroke-width="4"/>
<path d="M26.9531 27.3633V30H15.2812V27.75L20.8008 21.832C21.3555 21.2148 21.793 20.6719 22.1133 20.2031C22.4336 19.7266 22.6641 19.3008 22.8047 18.9258C22.9531 18.543 23.0273 18.1797 23.0273 17.8359C23.0273 17.3203 22.9414 16.8789 22.7695 16.5117C22.5977 16.1367 22.3438 15.8477 22.0078 15.6445C21.6797 15.4414 21.2734 15.3398 20.7891 15.3398C20.2734 15.3398 19.8281 15.4648 19.4531 15.7148C19.0859 15.9648 18.8047 16.3125 18.6094 16.7578C18.4219 17.2031 18.3281 17.707 18.3281 18.2695H14.9414C14.9414 17.2539 15.1836 16.3242 15.668 15.4805C16.1523 14.6289 16.8359 13.9531 17.7188 13.4531C18.6016 12.9453 19.6484 12.6914 20.8594 12.6914C22.0547 12.6914 23.0625 12.8867 23.8828 13.2773C24.7109 13.6602 25.3359 14.2148 25.7578 14.9414C26.1875 15.6602 26.4023 16.5195 26.4023 17.5195C26.4023 18.082 26.3125 18.6328 26.1328 19.1719C25.9531 19.7031 25.6953 20.2344 25.3594 20.7656C25.0312 21.2891 24.6328 21.8203 24.1641 22.3594C23.6953 22.8984 23.1758 23.457 22.6055 24.0352L19.6406 27.3633H26.9531Z" fill="black"/>
<path fill-rule="evenodd" clip-rule="evenodd" d="M26.1086 45.0746C25.579 45.0746 25.0744 45.1859 24.6142 45.3866C25.0463 44.7299 25.2999 43.9344 25.2999 43.0764C25.2999 40.8251 23.5575 39 21.4084 39C19.2593 39 17.517 40.8251 17.517 43.0764C17.517 43.8932 17.7473 44.6533 18.1422 45.2911C17.7495 45.1515 17.3291 45.0746 16.8914 45.0746C14.7422 45.0746 13 46.8997 13 49.151C13 51.4023 14.7422 53.2274 16.8914 53.2274C17.3768 53.2274 17.841 53.1335 18.2695 52.9634C18.2695 52.9643 20.0806 52.452 21.2711 50.1821V51.5488C21.2711 51.5488 20.6607 55.857 16.3573 56.3286H15.6705V57H27.3905V56.3286H26.7038C22.4004 55.857 21.7899 51.5488 21.7899 51.5488V50.2741C22.0117 50.7856 23.2377 53.2866 25.993 53.2246C26.0315 53.2255 26.0698 53.2274 26.1086 53.2274C28.2578 53.2274 30 51.4023 30 49.151C30 46.8997 28.2578 45.0746 26.1086 45.0746Z" fill="#1A1919"/>
</svg>
