<svg width="88" height="128" viewBox="0 0 88 128" fill="none" xmlns="http://www.w3.org/2000/svg">
<rect x="2" y="2" width="84" height="124" rx="14" fill="white" stroke="#D2D2D2" stroke-width="4"/>
<path fill-rule="evenodd" clip-rule="evenodd" d="M25.229 38.0007C21.7477 38.0548 21.0557 42.0601 21.0557 42.0601C21.0557 42.0601 20.2523 38.0548 16.771 38.0007C13.2897 37.9465 11.1473 41.0317 12.3257 44.2792C13.5039 47.5267 14.6779 48.2574 16.5279 50.6119C18.3777 52.9664 21.0691 57.0393 21.0557 58C21.0423 57.0393 23.6222 52.9664 25.4722 50.6119C27.3221 48.2574 28.4961 47.5267 29.6744 44.2792C30.8526 41.0317 28.7103 37.9465 25.229 38.0007Z" fill="#F24822"/>
<path d="M26.8711 12.9375V14.7539L20.2734 30H16.7109L23.3086 15.5742H14.8125V12.9375H26.8711Z" fill="#F24822"/>
</svg>
