<svg width="88" height="128" viewBox="0 0 88 128" fill="none" xmlns="http://www.w3.org/2000/svg">
<rect x="2" y="2" width="84" height="124" rx="14" fill="white" stroke="#D2D2D2" stroke-width="4"/>
<path d="M26.8711 12.9375V14.7539L20.2734 30H16.7109L23.3086 15.5742H14.8125V12.9375H26.8711Z" fill="black"/>
<path fill-rule="evenodd" clip-rule="evenodd" d="M26.1086 45.0746C25.579 45.0746 25.0744 45.1859 24.6142 45.3866C25.0463 44.7299 25.2999 43.9344 25.2999 43.0764C25.2999 40.8251 23.5575 39 21.4084 39C19.2593 39 17.517 40.8251 17.517 43.0764C17.517 43.8932 17.7473 44.6533 18.1422 45.2911C17.7495 45.1515 17.3291 45.0746 16.8914 45.0746C14.7422 45.0746 13 46.8997 13 49.151C13 51.4023 14.7422 53.2274 16.8914 53.2274C17.3768 53.2274 17.841 53.1335 18.2695 52.9634C18.2695 52.9643 20.0806 52.452 21.2711 50.1821V51.5488C21.2711 51.5488 20.6607 55.857 16.3573 56.3286H15.6705V57H27.3905V56.3286H26.7038C22.4004 55.857 21.7899 51.5488 21.7899 51.5488V50.2741C22.0117 50.7856 23.2377 53.2866 25.993 53.2246C26.0315 53.2255 26.0698 53.2274 26.1086 53.2274C28.2578 53.2274 30 51.4023 30 49.151C30 46.8997 28.2578 45.0746 26.1086 45.0746Z" fill="#1A1919"/>
</svg>
