<svg width="88" height="128" viewBox="0 0 88 128" fill="none" xmlns="http://www.w3.org/2000/svg">
<rect x="2" y="2" width="84" height="124" rx="14" fill="white" stroke="#D2D2D2" stroke-width="4"/>
<path d="M26.8711 12.9375V14.7539L20.2734 30H16.7109L23.3086 15.5742H14.8125V12.9375H26.8711Z" fill="black"/>
<path fill-rule="evenodd" clip-rule="evenodd" d="M25.4939 53.6727C28.7823 53.7151 30.8052 51.2974 29.6925 48.7524C28.5798 46.2074 27.4705 45.6348 25.7238 43.7897C23.9763 41.9447 21.4352 38.7529 21.4472 38C21.4601 38.7529 19.0236 41.9447 17.2761 43.7897C15.5294 45.6348 14.421 46.2074 13.3074 48.7524C12.1947 51.2974 14.2185 53.7151 17.506 53.6727C19.7631 53.6436 20.7789 52.1555 21.1933 51.2252L21.1933 52.4428C21.1933 52.4428 20.4726 56.8348 15.387 57.3156L14.5763 57.3156L14.5763 58L28.4245 58L28.4245 57.3156L27.6129 57.3156C22.5282 56.8348 21.8067 52.4428 21.8067 52.4428L21.8067 51.3851C22.2948 52.3164 23.362 53.6452 25.4939 53.6727Z" fill="#1A1919"/>
</svg>
