<svg width="88" height="128" viewBox="0 0 88 128" fill="none" xmlns="http://www.w3.org/2000/svg">
<rect x="2" y="2" width="84" height="124" rx="14" fill="white" stroke="#D2D2D2" stroke-width="4"/>
<path fill-rule="evenodd" clip-rule="evenodd" d="M25.229 38.0007C21.7477 38.0548 21.0557 42.0601 21.0557 42.0601C21.0557 42.0601 20.2523 38.0548 16.771 38.0007C13.2897 37.9465 11.1473 41.0317 12.3257 44.2792C13.5039 47.5267 14.6779 48.2574 16.5279 50.6119C18.3777 52.9664 21.0691 57.0393 21.0557 58C21.0423 57.0393 23.6222 52.9664 25.4722 50.6119C27.3221 48.2574 28.4961 47.5267 29.6744 44.2792C30.8526 41.0317 28.7103 37.9465 25.229 38.0007Z" fill="#F24822"/>
<path d="M18.457 22.2305L15.7617 21.5859L16.7344 12.9375H26.3203V15.668H19.5117L19.0898 19.4531C19.3164 19.3203 19.6602 19.1797 20.1211 19.0312C20.582 18.875 21.0977 18.7969 21.668 18.7969C22.4961 18.7969 23.2305 18.9258 23.8711 19.1836C24.5117 19.4414 25.0547 19.8164 25.5 20.3086C25.9531 20.8008 26.2969 21.4023 26.5312 22.1133C26.7656 22.8242 26.8828 23.6289 26.8828 24.5273C26.8828 25.2852 26.7656 26.0078 26.5312 26.6953C26.2969 27.375 25.9414 27.9844 25.4648 28.5234C24.9883 29.0547 24.3906 29.4727 23.6719 29.7773C22.9531 30.082 22.1016 30.2344 21.1172 30.2344C20.3828 30.2344 19.6719 30.125 18.9844 29.9062C18.3047 29.6875 17.6914 29.3633 17.1445 28.9336C16.6055 28.5039 16.1719 27.9844 15.8438 27.375C15.5234 26.7578 15.3555 26.0547 15.3398 25.2656H18.6914C18.7383 25.75 18.8633 26.168 19.0664 26.5195C19.2773 26.8633 19.5547 27.1289 19.8984 27.3164C20.2422 27.5039 20.6445 27.5977 21.1055 27.5977C21.5352 27.5977 21.9023 27.5156 22.207 27.3516C22.5117 27.1875 22.7578 26.9609 22.9453 26.6719C23.1328 26.375 23.2695 26.0312 23.3555 25.6406C23.4492 25.2422 23.4961 24.8125 23.4961 24.3516C23.4961 23.8906 23.4414 23.4727 23.332 23.0977C23.2227 22.7227 23.0547 22.3984 22.8281 22.125C22.6016 21.8516 22.3125 21.6406 21.9609 21.4922C21.6172 21.3438 21.2148 21.2695 20.7539 21.2695C20.1289 21.2695 19.6445 21.3672 19.3008 21.5625C18.9648 21.7578 18.6836 21.9805 18.457 22.2305Z" fill="#F24822"/>
</svg>
