<svg width="88" height="128" viewBox="0 0 88 128" fill="none" xmlns="http://www.w3.org/2000/svg">
<rect x="2" y="2" width="84" height="124" rx="14" fill="white" stroke="#D2D2D2" stroke-width="4"/>
<path d="M23.9883 12.7617H24.4805V15.457H24.2812C23.3906 15.457 22.5977 15.5898 21.9023 15.8555C21.207 16.1211 20.6172 16.5 20.1328 16.9922C19.6562 17.4766 19.2891 18.0625 19.0312 18.75C18.7812 19.4375 18.6562 20.207 18.6562 21.0586V23.8945C18.6562 24.5039 18.7148 25.043 18.832 25.5117C18.957 25.9727 19.1328 26.3594 19.3594 26.6719C19.5938 26.9766 19.8672 27.207 20.1797 27.3633C20.4922 27.5117 20.8438 27.5859 21.2344 27.5859C21.6016 27.5859 21.9336 27.5078 22.2305 27.3516C22.5352 27.1953 22.793 26.9766 23.0039 26.6953C23.2227 26.4062 23.3867 26.0703 23.4961 25.6875C23.6133 25.2969 23.6719 24.8711 23.6719 24.4102C23.6719 23.9492 23.6133 23.5234 23.4961 23.1328C23.3867 22.7422 23.2227 22.4062 23.0039 22.125C22.7852 21.8359 22.5195 21.6133 22.207 21.457C21.8945 21.3008 21.543 21.2227 21.1523 21.2227C20.6211 21.2227 20.1523 21.3477 19.7461 21.5977C19.3477 21.8398 19.0352 22.1523 18.8086 22.5352C18.582 22.918 18.4609 23.3203 18.4453 23.7422L17.4258 23.0859C17.4492 22.4844 17.5742 21.9141 17.8008 21.375C18.0352 20.8359 18.3555 20.3594 18.7617 19.9453C19.1758 19.5234 19.6719 19.1953 20.25 18.9609C20.8281 18.7188 21.4805 18.5977 22.207 18.5977C23.0039 18.5977 23.7031 18.75 24.3047 19.0547C24.9141 19.3594 25.4219 19.7773 25.8281 20.3086C26.2344 20.8398 26.5391 21.4531 26.7422 22.1484C26.9453 22.8438 27.0469 23.5859 27.0469 24.375C27.0469 25.2031 26.9102 25.9727 26.6367 26.6836C26.3711 27.3945 25.9844 28.0156 25.4766 28.5469C24.9766 29.0781 24.375 29.4922 23.6719 29.7891C22.9688 30.0859 22.1797 30.2344 21.3047 30.2344C20.3984 30.2344 19.5742 30.0703 18.832 29.7422C18.0977 29.4062 17.4648 28.9375 16.9336 28.3359C16.4023 27.7344 15.9922 27.0195 15.7031 26.1914C15.4219 25.3633 15.2812 24.457 15.2812 23.4727V22.1602C15.2812 20.7852 15.4805 19.5273 15.8789 18.3867C16.2852 17.2383 16.8672 16.2461 17.625 15.4102C18.3828 14.5664 19.2969 13.9141 20.3672 13.4531C21.4375 12.9922 22.6445 12.7617 23.9883 12.7617Z" fill="black"/>
<path fill-rule="evenodd" clip-rule="evenodd" d="M26.1086 45.0746C25.579 45.0746 25.0744 45.1859 24.6142 45.3866C25.0463 44.7299 25.2999 43.9344 25.2999 43.0764C25.2999 40.8251 23.5575 39 21.4084 39C19.2593 39 17.517 40.8251 17.517 43.0764C17.517 43.8932 17.7473 44.6533 18.1422 45.2911C17.7495 45.1515 17.3291 45.0746 16.8914 45.0746C14.7422 45.0746 13 46.8997 13 49.151C13 51.4023 14.7422 53.2274 16.8914 53.2274C17.3768 53.2274 17.841 53.1335 18.2695 52.9634C18.2695 52.9643 20.0806 52.452 21.2711 50.1821V51.5488C21.2711 51.5488 20.6607 55.857 16.3573 56.3286H15.6705V57H27.3905V56.3286H26.7038C22.4004 55.857 21.7899 51.5488 21.7899 51.5488V50.2741C22.0117 50.7856 23.2377 53.2866 25.993 53.2246C26.0315 53.2255 26.0698 53.2274 26.1086 53.2274C28.2578 53.2274 30 51.4023 30 49.151C30 46.8997 28.2578 45.0746 26.1086 45.0746Z" fill="#1A1919"/>
</svg>
