<svg width="88" height="128" viewBox="0 0 88 128" fill="none" xmlns="http://www.w3.org/2000/svg">
<rect x="2" y="2" width="84" height="124" rx="14" fill="white" stroke="#D2D2D2" stroke-width="4"/>
<path d="M26.7773 25.3242C26.7773 26.3945 26.5273 27.2969 26.0273 28.0312C25.5273 28.7578 24.8398 29.3086 23.9648 29.6836C23.0977 30.0508 22.1133 30.2344 21.0117 30.2344C19.9102 30.2344 18.9219 30.0508 18.0469 29.6836C17.1719 29.3086 16.4805 28.7578 15.9727 28.0312C15.4648 27.2969 15.2109 26.3945 15.2109 25.3242C15.2109 24.6055 15.3555 23.957 15.6445 23.3789C15.9336 22.793 16.3359 22.293 16.8516 21.8789C17.375 21.457 17.9883 21.1367 18.6914 20.918C19.3945 20.6914 20.1602 20.5781 20.9883 20.5781C22.0977 20.5781 23.0898 20.7734 23.9648 21.1641C24.8398 21.5547 25.5273 22.1055 26.0273 22.8164C26.5273 23.5273 26.7773 24.3633 26.7773 25.3242ZM23.3789 25.1016C23.3789 24.5781 23.2773 24.1289 23.0742 23.7539C22.8789 23.3711 22.6016 23.0781 22.2422 22.875C21.8828 22.6719 21.4648 22.5703 20.9883 22.5703C20.5117 22.5703 20.0938 22.6719 19.7344 22.875C19.375 23.0781 19.0938 23.3711 18.8906 23.7539C18.6953 24.1289 18.5977 24.5781 18.5977 25.1016C18.5977 25.6172 18.6953 26.0625 18.8906 26.4375C19.0938 26.8125 19.375 27.1016 19.7344 27.3047C20.1016 27.5 20.5273 27.5977 21.0117 27.5977C21.4961 27.5977 21.9141 27.5 22.2656 27.3047C22.625 27.1016 22.8984 26.8125 23.0859 26.4375C23.2812 26.0625 23.3789 25.6172 23.3789 25.1016ZM26.4141 17.4609C26.4141 18.3281 26.1836 19.0977 25.7227 19.7695C25.2617 20.4336 24.6211 20.9531 23.8008 21.3281C22.9883 21.7031 22.0586 21.8906 21.0117 21.8906C19.957 21.8906 19.0195 21.7031 18.1992 21.3281C17.3789 20.9531 16.7383 20.4336 16.2773 19.7695C15.8164 19.0977 15.5859 18.3281 15.5859 17.4609C15.5859 16.4297 15.8164 15.5625 16.2773 14.8594C16.7461 14.1484 17.3867 13.6094 18.1992 13.2422C19.0195 12.875 19.9492 12.6914 20.9883 12.6914C22.043 12.6914 22.9766 12.875 23.7891 13.2422C24.6094 13.6094 25.25 14.1484 25.7109 14.8594C26.1797 15.5625 26.4141 16.4297 26.4141 17.4609ZM23.0391 17.6133C23.0391 17.1523 22.957 16.7539 22.793 16.418C22.6289 16.0742 22.3945 15.8086 22.0898 15.6211C21.793 15.4336 21.4258 15.3398 20.9883 15.3398C20.5664 15.3398 20.2031 15.4297 19.8984 15.6094C19.6016 15.7891 19.3711 16.0508 19.207 16.3945C19.0508 16.7305 18.9727 17.1367 18.9727 17.6133C18.9727 18.0742 19.0508 18.4805 19.207 18.832C19.3711 19.1758 19.6055 19.4453 19.9102 19.6406C20.2148 19.8359 20.582 19.9336 21.0117 19.9336C21.4414 19.9336 21.8047 19.8359 22.1016 19.6406C22.4062 19.4453 22.6367 19.1758 22.793 18.832C22.957 18.4805 23.0391 18.0742 23.0391 17.6133Z" fill="black"/>
<path fill-rule="evenodd" clip-rule="evenodd" d="M26.1086 45.0746C25.579 45.0746 25.0744 45.1859 24.6142 45.3866C25.0463 44.7299 25.2999 43.9344 25.2999 43.0764C25.2999 40.8251 23.5575 39 21.4084 39C19.2593 39 17.517 40.8251 17.517 43.0764C17.517 43.8932 17.7473 44.6533 18.1422 45.2911C17.7495 45.1515 17.3291 45.0746 16.8914 45.0746C14.7422 45.0746 13 46.8997 13 49.151C13 51.4023 14.7422 53.2274 16.8914 53.2274C17.3768 53.2274 17.841 53.1335 18.2695 52.9634C18.2695 52.9643 20.0806 52.452 21.2711 50.1821V51.5488C21.2711 51.5488 20.6607 55.857 16.3573 56.3286H15.6705V57H27.3905V56.3286H26.7038C22.4004 55.857 21.7899 51.5488 21.7899 51.5488V50.2741C22.0117 50.7856 23.2377 53.2866 25.993 53.2246C26.0315 53.2255 26.0698 53.2274 26.1086 53.2274C28.2578 53.2274 30 51.4023 30 49.151C30 46.8997 28.2578 45.0746 26.1086 45.0746Z" fill="#1A1919"/>
</svg>
