<svg width="88" height="128" viewBox="0 0 88 128" fill="none" xmlns="http://www.w3.org/2000/svg">
<rect x="2" y="2" width="84" height="124" rx="14" fill="white" stroke="#D2D2D2" stroke-width="4"/>
<path d="M17.6719 27.4336H17.8945C18.832 27.4336 19.6367 27.3203 20.3086 27.0938C20.9883 26.8594 21.5469 26.5234 21.9844 26.0859C22.4219 25.6484 22.7461 25.1133 22.957 24.4805C23.168 23.8398 23.2734 23.1133 23.2734 22.3008V19.0664C23.2734 18.4492 23.2109 17.9062 23.0859 17.4375C22.9688 16.9688 22.7969 16.582 22.5703 16.2773C22.3516 15.9648 22.0938 15.7305 21.7969 15.5742C21.5078 15.418 21.1875 15.3398 20.8359 15.3398C20.4609 15.3398 20.1289 15.4336 19.8398 15.6211C19.5508 15.8008 19.3047 16.0469 19.1016 16.3594C18.9062 16.6719 18.7539 17.0312 18.6445 17.4375C18.543 17.8359 18.4922 18.2539 18.4922 18.6914C18.4922 19.1289 18.543 19.5469 18.6445 19.9453C18.7461 20.3359 18.8984 20.6836 19.1016 20.9883C19.3047 21.2852 19.5586 21.5234 19.8633 21.7031C20.168 21.875 20.5273 21.9609 20.9414 21.9609C21.3398 21.9609 21.6953 21.8867 22.0078 21.7383C22.3281 21.582 22.5977 21.3789 22.8164 21.1289C23.043 20.8789 23.2148 20.6016 23.332 20.2969C23.457 19.9922 23.5195 19.6836 23.5195 19.3711L24.6328 19.9805C24.6328 20.5273 24.5156 21.0664 24.2812 21.5977C24.0469 22.1289 23.7188 22.6133 23.2969 23.0508C22.8828 23.4805 22.4023 23.8242 21.8555 24.082C21.3086 24.3398 20.7227 24.4688 20.0977 24.4688C19.3008 24.4688 18.5938 24.3242 17.9766 24.0352C17.3594 23.7383 16.8359 23.332 16.4062 22.8164C15.9844 22.293 15.6641 21.6836 15.4453 20.9883C15.2266 20.293 15.1172 19.5391 15.1172 18.7266C15.1172 17.8984 15.25 17.1211 15.5156 16.3945C15.7891 15.668 16.1758 15.0273 16.6758 14.4727C17.1836 13.918 17.7891 13.4844 18.4922 13.1719C19.2031 12.8516 19.9922 12.6914 20.8594 12.6914C21.7266 12.6914 22.5156 12.8594 23.2266 13.1953C23.9375 13.5312 24.5469 14.0078 25.0547 14.625C25.5625 15.2344 25.9531 15.9648 26.2266 16.8164C26.5078 17.668 26.6484 18.6133 26.6484 19.6523V20.8242C26.6484 21.9336 26.5273 22.9648 26.2852 23.918C26.0508 24.8711 25.6953 25.7344 25.2188 26.5078C24.75 27.2734 24.1641 27.9297 23.4609 28.4766C22.7656 29.0234 21.957 29.4414 21.0352 29.7305C20.1133 30.0195 19.082 30.1641 17.9414 30.1641H17.6719V27.4336Z" fill="black"/>
<path fill-rule="evenodd" clip-rule="evenodd" d="M26.1086 45.0746C25.579 45.0746 25.0744 45.1859 24.6142 45.3866C25.0463 44.7299 25.2999 43.9344 25.2999 43.0764C25.2999 40.8251 23.5575 39 21.4084 39C19.2593 39 17.517 40.8251 17.517 43.0764C17.517 43.8932 17.7473 44.6533 18.1422 45.2911C17.7495 45.1515 17.3291 45.0746 16.8914 45.0746C14.7422 45.0746 13 46.8997 13 49.151C13 51.4023 14.7422 53.2274 16.8914 53.2274C17.3768 53.2274 17.841 53.1335 18.2695 52.9634C18.2695 52.9643 20.0806 52.452 21.2711 50.1821V51.5488C21.2711 51.5488 20.6607 55.857 16.3573 56.3286H15.6705V57H27.3905V56.3286H26.7038C22.4004 55.857 21.7899 51.5488 21.7899 51.5488V50.2741C22.0117 50.7856 23.2377 53.2866 25.993 53.2246C26.0315 53.2255 26.0698 53.2274 26.1086 53.2274C28.2578 53.2274 30 51.4023 30 49.151C30 46.8997 28.2578 45.0746 26.1086 45.0746Z" fill="#1A1919"/>
</svg>
