<svg width="88" height="128" viewBox="0 0 88 128" fill="none" xmlns="http://www.w3.org/2000/svg">
<rect x="2" y="2" width="84" height="124" rx="14" fill="white" stroke="#D2D2D2" stroke-width="4"/>
<path fill-rule="evenodd" clip-rule="evenodd" d="M25.229 38.0007C21.7477 38.0548 21.0557 42.0601 21.0557 42.0601C21.0557 42.0601 20.2523 38.0548 16.771 38.0007C13.2897 37.9465 11.1473 41.0317 12.3257 44.2792C13.5039 47.5267 14.6779 48.2574 16.5279 50.6119C18.3777 52.9664 21.0691 57.0393 21.0557 58C21.0423 57.0393 23.6222 52.9664 25.4722 50.6119C27.3221 48.2574 28.4961 47.5267 29.6744 44.2792C30.8526 41.0317 28.7103 37.9465 25.229 38.0007Z" fill="#F24822"/>
<path d="M18.7383 20.0039H20.543C21.1211 20.0039 21.5977 19.9062 21.9727 19.7109C22.3477 19.5078 22.625 19.2266 22.8047 18.8672C22.9922 18.5 23.0859 18.0742 23.0859 17.5898C23.0859 17.1523 23 16.7656 22.8281 16.4297C22.6641 16.0859 22.4102 15.8203 22.0664 15.6328C21.7227 15.4375 21.2891 15.3398 20.7656 15.3398C20.3516 15.3398 19.9688 15.4219 19.6172 15.5859C19.2656 15.75 18.9844 15.9805 18.7734 16.2773C18.5625 16.5742 18.457 16.9336 18.457 17.3555H15.0703C15.0703 16.418 15.3203 15.6016 15.8203 14.9062C16.3281 14.2109 17.0078 13.668 17.8594 13.2773C18.7109 12.8867 19.6484 12.6914 20.6719 12.6914C21.8281 12.6914 22.8398 12.8789 23.707 13.2539C24.5742 13.6211 25.25 14.1641 25.7344 14.8828C26.2188 15.6016 26.4609 16.4922 26.4609 17.5547C26.4609 18.0938 26.3359 18.6172 26.0859 19.125C25.8359 19.625 25.4766 20.0781 25.0078 20.4844C24.5469 20.8828 23.9844 21.2031 23.3203 21.4453C22.6562 21.6797 21.9102 21.7969 21.082 21.7969H18.7383V20.0039ZM18.7383 22.5703V20.8242H21.082C22.0117 20.8242 22.8281 20.9297 23.5312 21.1406C24.2344 21.3516 24.8242 21.6562 25.3008 22.0547C25.7773 22.4453 26.1367 22.9102 26.3789 23.4492C26.6211 23.9805 26.7422 24.5703 26.7422 25.2188C26.7422 26.0156 26.5898 26.7266 26.2852 27.3516C25.9805 27.9688 25.5508 28.4922 24.9961 28.9219C24.4492 29.3516 23.8086 29.6797 23.0742 29.9062C22.3398 30.125 21.5391 30.2344 20.6719 30.2344C19.9531 30.2344 19.2461 30.1367 18.5508 29.9414C17.8633 29.7383 17.2383 29.4375 16.6758 29.0391C16.1211 28.6328 15.6758 28.125 15.3398 27.5156C15.0117 26.8984 14.8477 26.168 14.8477 25.3242H18.2344C18.2344 25.7617 18.3438 26.1523 18.5625 26.4961C18.7812 26.8398 19.082 27.1094 19.4648 27.3047C19.8555 27.5 20.2891 27.5977 20.7656 27.5977C21.3047 27.5977 21.7656 27.5 22.1484 27.3047C22.5391 27.1016 22.8359 26.8203 23.0391 26.4609C23.25 26.0938 23.3555 25.668 23.3555 25.1836C23.3555 24.5586 23.2422 24.0586 23.0156 23.6836C22.7891 23.3008 22.4648 23.0195 22.043 22.8398C21.6211 22.6602 21.1211 22.5703 20.543 22.5703H18.7383Z" fill="#F24822"/>
</svg>
