<svg width="88" height="128" viewBox="0 0 88 128" fill="none" xmlns="http://www.w3.org/2000/svg">
<rect x="2" y="2" width="84" height="124" rx="14" fill="white" stroke="#D2D2D2" stroke-width="4"/>
<path d="M26.9531 27.3633V30H15.2812V27.75L20.8008 21.832C21.3555 21.2148 21.793 20.6719 22.1133 20.2031C22.4336 19.7266 22.6641 19.3008 22.8047 18.9258C22.9531 18.543 23.0273 18.1797 23.0273 17.8359C23.0273 17.3203 22.9414 16.8789 22.7695 16.5117C22.5977 16.1367 22.3438 15.8477 22.0078 15.6445C21.6797 15.4414 21.2734 15.3398 20.7891 15.3398C20.2734 15.3398 19.8281 15.4648 19.4531 15.7148C19.0859 15.9648 18.8047 16.3125 18.6094 16.7578C18.4219 17.2031 18.3281 17.707 18.3281 18.2695H14.9414C14.9414 17.2539 15.1836 16.3242 15.668 15.4805C16.1523 14.6289 16.8359 13.9531 17.7188 13.4531C18.6016 12.9453 19.6484 12.6914 20.8594 12.6914C22.0547 12.6914 23.0625 12.8867 23.8828 13.2773C24.7109 13.6602 25.3359 14.2148 25.7578 14.9414C26.1875 15.6602 26.4023 16.5195 26.4023 17.5195C26.4023 18.082 26.3125 18.6328 26.1328 19.1719C25.9531 19.7031 25.6953 20.2344 25.3594 20.7656C25.0312 21.2891 24.6328 21.8203 24.1641 22.3594C23.6953 22.8984 23.1758 23.457 22.6055 24.0352L19.6406 27.3633H26.9531Z" fill="black"/>
<path fill-rule="evenodd" clip-rule="evenodd" d="M25.4939 53.6727C28.7823 53.7151 30.8052 51.2974 29.6925 48.7524C28.5798 46.2074 27.4705 45.6348 25.7238 43.7897C23.9763 41.9447 21.4352 38.7529 21.4472 38C21.4601 38.7529 19.0236 41.9447 17.2761 43.7897C15.5294 45.6348 14.421 46.2074 13.3074 48.7524C12.1947 51.2974 14.2185 53.7151 17.506 53.6727C19.7631 53.6436 20.7789 52.1555 21.1933 51.2252L21.1933 52.4428C21.1933 52.4428 20.4726 56.8348 15.387 57.3156L14.5763 57.3156L14.5763 58L28.4245 58L28.4245 57.3156L27.6129 57.3156C22.5282 56.8348 21.8067 52.4428 21.8067 52.4428L21.8067 51.3851C22.2948 52.3164 23.362 53.6452 25.4939 53.6727Z" fill="#1A1919"/>
</svg>
